<?xml version="1.0" encoding="UTF-8"?>
<svg width="24px" height="24px" viewBox="0 0 24 24" version="1.1" xmlns="http://www.w3.org/2000/svg" xmlns:xlink="http://www.w3.org/1999/xlink">
    <title>LinkedIn Icon</title>
    <g stroke="none" stroke-width="1" fill="none" fill-rule="evenodd">
        <path d="M19,3 C20.105,3 21,3.895 21,5 L21,19 C21,20.105 20.105,21 19,21 L5,21 C3.895,21 3,20.105 3,19 L3,5 C3,3.895 3.895,3 5,3 L19,3 Z M18.5,18.5 L18.5,13.2 C18.5,11.4 18.5,10.5 16.6,10.5 C15.4,10.5 15.1,11.5 15.1,12.5 L15.1,18.5 L13,18.5 L13,9 L15,9 L15,10 C15.4,9.4 16.2,9 17.2,9 C19.1,9 20.5,10 20.5,13 L20.5,18.5 L18.5,18.5 Z M8.5,18.5 L6.5,18.5 L6.5,9 L8.5,9 L8.5,18.5 Z M7.5,7.5 C6.7,7.5 6,6.8 6,6 C6,5.2 6.7,4.5 7.5,4.5 C8.3,4.5 9,5.2 9,6 C9,6.8 8.3,7.5 7.5,7.5 Z" fill="#FFFFFF" fill-rule="nonzero"></path>
    </g>
</svg>
