<?xml version="1.0" encoding="utf-8"?>
<svg xmlns="http://www.w3.org/2000/svg" viewBox="0 0 24 24" fill="#00c977">
  <path d="M21 16V8a2 2 0 0 0-1-1.73l-7-4a2 2 0 0 0-2 0l-7 4A2 2 0 0 0 3 8v8a2 2 0 0 0 1 1.73l7 4a2 2 0 0 0 2 0l7-4A2 2 0 0 0 21 16z"></path>
  <path d="M12 22V12M3.3 7l8.7-5 8.7 5M12 12l8.7-5M12 12l-8.7-5" stroke="#FFF" fill="none" stroke-width="1" stroke-linecap="round" stroke-linejoin="round"></path>
  <text x="12" y="16" text-anchor="middle" font-family="Arial" font-size="4" fill="white">MECA</text>
</svg>
