<svg width="21" height="25" viewBox="0 0 21 25" fill="none" xmlns="http://www.w3.org/2000/svg">
<path d="M17.2045 13.2632C17.2166 12.3433 17.4669 11.4414 17.9321 10.6413C18.3972 9.84117 19.0621 9.16894 19.8648 8.68712C19.3548 7.97607 18.6821 7.3909 17.9 6.97809C17.1178 6.56529 16.2479 6.33622 15.3592 6.30907C13.4635 6.1148 11.6258 7.41653 10.6598 7.41653C9.67506 7.41653 8.18776 6.32836 6.58616 6.36053C5.55021 6.3932 4.54059 6.68731 3.65568 7.2142C2.77077 7.74108 2.04075 8.48277 1.53674 9.367C-0.646482 13.0574 0.982005 18.481 3.07338 21.4641C4.11975 22.9248 5.34264 24.5565 6.94279 24.4986C8.50863 24.4352 9.09344 23.5238 10.9835 23.5238C12.8561 23.5238 13.4048 24.4986 15.0374 24.4618C16.7176 24.4352 17.7762 22.9946 18.7859 21.5201C19.5377 20.4793 20.1162 19.3289 20.5 18.1117C19.5238 17.7086 18.6908 17.0339 18.1048 16.1717C17.5187 15.3095 17.2056 14.298 17.2045 13.2632Z" fill="white"/>
<path d="M14.1208 4.34713C15.0369 3.27343 15.4883 1.89335 15.379 0.5C13.9793 0.643519 12.6865 1.2966 11.758 2.32911C11.304 2.83351 10.9563 3.42033 10.7348 4.05601C10.5132 4.69168 10.4222 5.36375 10.4669 6.0338C11.1669 6.04084 11.8595 5.8927 12.4924 5.60054C13.1253 5.30838 13.6821 4.87982 14.1208 4.34713Z" fill="white"/>
</svg>
