<svg width="44" height="44" viewBox="0 0 44 44" fill="none" xmlns="http://www.w3.org/2000/svg">
<rect x="2" y="2" width="40" height="40" rx="20" fill="#00C977"/>
<rect x="1" y="1" width="42" height="42" rx="21" stroke="#00C977" stroke-opacity="0.3" stroke-width="2"/>
<path d="M15.5 29V29.5H16H19H19.5V29V24C19.5 23.8429 19.5477 23.7351 19.6409 23.6422C19.7351 23.5484 19.8439 23.5004 20.0008 23.5C20.0009 23.5 20.0011 23.5 20.0012 23.5L24 23.5C24.1572 23.5 24.2657 23.5478 24.3594 23.6416C24.4532 23.7353 24.5004 23.8431 24.5 23.9988V24V29V29.5H25H28H28.5V29V20V19.75L28.3 19.6L22.3 15.1L22 14.875L21.7 15.1L15.7 19.6L15.5 19.75V20V29ZM15.0962 18.8028L15.0962 18.8028L15.1 18.8L21.1 14.3L21.1 14.3L21.103 14.2977C21.3638 14.099 21.6568 14 22 14C22.3432 14 22.6362 14.099 22.897 14.2977L22.897 14.2977L22.9 14.3L28.9 18.8L28.9 18.8L28.9043 18.8032C29.0889 18.9386 29.2337 19.1099 29.341 19.324C29.448 19.5376 29.5005 19.7605 29.5 19.9989V20V29C29.5 29.4162 29.3575 29.7604 29.0584 30.0594C28.7594 30.3585 28.4158 30.5005 28.0006 30.5H28H24C23.8429 30.5 23.7351 30.4523 23.6422 30.3591C23.5484 30.2649 23.5004 30.156 23.5 29.9992C23.5 29.9991 23.5 29.9989 23.5 29.9988L23.5 25V24.5H23H21H20.5V25V30C20.5 30.1572 20.4522 30.2657 20.3584 30.3594C20.2647 30.4532 20.1569 30.5004 20.0012 30.5H20H16C15.5835 30.5 15.2398 30.3577 14.9416 30.0594C14.6434 29.7613 14.5006 29.4171 14.5 28.9997V20C14.5 19.7612 14.5528 19.5379 14.66 19.324C14.7675 19.1096 14.9121 18.9382 15.0962 18.8028Z" fill="black" stroke="white"/>
</svg>
