<svg width="44" height="44" viewBox="0 0 44 44" fill="none" xmlns="http://www.w3.org/2000/svg">
<rect x="2" y="2" width="40" height="40" rx="20" fill="#00C977"/>
<rect x="1" y="1" width="42" height="42" rx="21" stroke="#00C977" stroke-opacity="0.3" stroke-width="2"/>
<path d="M32 22C32 16.477 27.523 12 22 12C16.477 12 12 16.477 12 22C12 27.523 16.477 32 22 32C27.523 32 32 27.523 32 22Z" stroke="white" stroke-width="1.5" stroke-linecap="round" stroke-linejoin="round"/>
<path d="M24.4 24.4L26 26M25.2 21.6C25.2 20.6452 24.8207 19.7295 24.1456 19.0544C23.4705 18.3793 22.5548 18 21.6 18C20.6452 18 19.7295 18.3793 19.0544 19.0544C18.3793 19.7295 18 20.6452 18 21.6C18 22.5548 18.3793 23.4705 19.0544 24.1456C19.7295 24.8207 20.6452 25.2 21.6 25.2C22.5548 25.2 23.4705 24.8207 24.1456 24.1456C24.8207 23.4705 25.2 22.5548 25.2 21.6Z" stroke="white" stroke-width="1.5" stroke-linecap="round" stroke-linejoin="round"/>
</svg>
