<svg width="191" height="46" viewBox="0 0 191 46" fill="none" xmlns="http://www.w3.org/2000/svg">
<g id="wordmark_branco 2">
<path id="Vector" d="M19.6598 3.24463C19.8149 3.24528 19.9699 3.24592 20.1297 3.24659C24.3781 3.30325 28.1672 4.96325 31.2186 7.8857C31.6718 7.69031 31.9684 7.43005 32.3218 7.08892C35.7691 3.95564 40.2549 3.07988 44.7862 3.2857C48.0176 3.52631 51.0116 4.93414 53.4799 6.9657C53.5755 7.0394 53.6711 7.1131 53.7696 7.18903C56.1504 9.1019 57.7193 12.2664 58.0903 15.2457C58.1558 16.1351 58.1405 17.0275 58.1352 17.9186C58.135 18.1818 58.1351 18.4449 58.1353 18.7081C58.1354 19.4164 58.1331 20.1247 58.1304 20.8331C58.1279 21.5756 58.1277 22.318 58.1272 23.0605C58.126 24.4639 58.1227 25.8672 58.1188 27.2705C58.1143 28.8693 58.1122 30.468 58.1102 32.0668C58.1061 35.3531 58.0988 38.6394 58.0903 41.9257C55.7864 41.9257 53.4826 41.9257 51.1089 41.9257C51.1089 31.4732 51.1089 21.0207 51.1089 10.2514C45.7188 10.2514 40.3286 10.2514 34.7751 10.2514C34.7751 20.7039 34.7751 31.1564 34.7751 41.9257C32.5147 41.9257 30.2543 41.9257 27.9255 41.9257C27.9255 31.4732 27.9255 21.0207 27.9255 10.2514C22.5353 10.2514 17.1452 10.2514 11.5917 10.2514C11.5917 20.7039 11.5917 31.1564 11.5917 41.9257C9.28782 41.9257 6.98396 41.9257 4.61029 41.9257C4.59838 38.4685 4.58868 35.0113 4.58299 31.5541C4.58028 29.9487 4.57659 28.3433 4.57054 26.7379C4.56527 25.3378 4.56189 23.9377 4.56072 22.5377C4.56003 21.797 4.55844 21.0565 4.55458 20.3159C4.55098 19.6172 4.54991 18.9185 4.5507 18.2198C4.55055 17.9649 4.54952 17.71 4.54748 17.4552C4.518 13.5771 5.8275 10.2715 8.56202 7.49142C10.3808 5.71412 12.6747 4.57584 15.0906 3.84427C15.1759 3.81814 15.2612 3.79201 15.3491 3.76508C16.7629 3.35927 18.194 3.23732 19.6598 3.24463Z" fill="white"/>
<path id="Vector_2" d="M154.117 3.28574C156.934 3.27682 159.751 3.26956 162.568 3.26531C163.876 3.26328 165.184 3.26052 166.492 3.25599C167.633 3.25205 168.774 3.24952 169.915 3.24864C170.518 3.24813 171.122 3.24694 171.725 3.24405C172.294 3.24135 172.864 3.24055 173.433 3.24114C173.641 3.24103 173.848 3.24027 174.056 3.23874C177.359 3.21564 180.346 4.20528 182.833 6.44002C182.936 6.53032 183.039 6.62063 183.145 6.71366C185.03 8.46751 186.299 11.095 186.437 13.6645C186.461 14.4111 186.455 15.1575 186.449 15.9044C186.449 16.1896 186.449 16.4748 186.45 16.7599C186.45 17.5278 186.447 18.2955 186.443 19.0633C186.44 19.8681 186.439 20.6728 186.439 21.4776C186.437 22.9987 186.433 24.5197 186.428 26.0408C186.422 27.7737 186.419 29.5066 186.416 31.2395C186.411 34.8016 186.401 38.3637 186.39 41.9257C184.086 41.9257 181.782 41.9257 179.408 41.9257C179.365 41.5354 179.321 41.1451 179.277 40.7429C179.166 40.8112 179.056 40.8794 178.943 40.9498C177.007 42.1183 174.986 42.753 172.711 42.7546C172.575 42.7557 172.439 42.7568 172.299 42.7579C171.852 42.761 171.405 42.7622 170.958 42.7631C170.644 42.7643 170.33 42.7655 170.016 42.7667C169.358 42.7688 168.701 42.7699 168.043 42.7702C167.207 42.7709 166.371 42.7759 165.535 42.7819C164.886 42.7858 164.237 42.7868 163.588 42.7869C163.28 42.7874 162.973 42.7891 162.665 42.7918C159.269 42.8199 156.277 42.1809 153.722 39.8229C153.621 39.7343 153.52 39.6457 153.416 39.5544C151.249 37.5463 150.004 34.59 149.886 31.6599C149.829 28.4677 150.777 25.487 153.015 23.1724C153.205 22.9817 153.398 22.7936 153.59 22.6057C153.679 22.5156 153.769 22.4255 153.86 22.3326C155.988 20.3144 159.044 19.5146 161.897 19.5381C162.089 19.5382 162.282 19.5382 162.474 19.5379C162.991 19.5378 163.507 19.5401 164.023 19.5429C164.565 19.5454 165.107 19.5456 165.649 19.5461C166.672 19.5473 167.696 19.5505 168.719 19.5545C170.104 19.5597 171.489 19.5618 172.874 19.5641C175.052 19.5678 177.23 19.5757 179.408 19.5829C179.408 16.5035 179.408 13.4241 179.408 10.2515C171.062 10.2515 162.716 10.2515 154.117 10.2515C154.117 7.95277 154.117 5.65408 154.117 3.28574ZM157.904 28.29C157.145 29.2474 156.936 30.2664 156.964 31.4618C156.964 31.5853 156.965 31.7089 156.966 31.8362C156.969 32.2259 156.975 32.6154 156.982 33.005C156.985 33.2713 156.987 33.5376 156.989 33.8039C156.995 34.4522 157.004 35.1004 157.015 35.7486C159.377 35.7609 161.74 35.7702 164.102 35.7758C165.199 35.7785 166.296 35.7822 167.393 35.7883C168.349 35.7935 169.306 35.7969 170.263 35.7981C170.769 35.7987 171.275 35.8003 171.781 35.8042C172.258 35.8078 172.735 35.8088 173.213 35.8081C173.469 35.8083 173.726 35.8111 173.983 35.814C175.466 35.8071 176.828 35.4313 177.959 34.4343C179.461 32.7682 179.464 31.157 179.433 29.0293C179.431 28.7884 179.429 28.5474 179.428 28.3065C179.423 27.7205 179.416 27.1345 179.408 26.5486C177.012 26.5363 174.615 26.527 172.218 26.5214C171.106 26.5187 169.993 26.515 168.88 26.5089C167.909 26.5037 166.939 26.5003 165.968 26.4991C165.455 26.4984 164.941 26.4969 164.428 26.493C163.944 26.4894 163.46 26.4883 162.975 26.4891C162.715 26.4889 162.454 26.4861 162.194 26.4832C160.44 26.4912 159.11 27.0148 157.904 28.29Z" fill="white"/>
<path id="Vector_3" d="M77.6236 3.22602C77.8835 3.22617 78.1434 3.22608 78.4033 3.22579C79.1015 3.22564 79.7997 3.22871 80.4979 3.2324C81.2302 3.23571 81.9626 3.23599 82.695 3.23662C84.0786 3.23824 85.4622 3.24255 86.8458 3.24784C88.4224 3.25374 89.999 3.25661 91.5755 3.25925C94.8157 3.26473 98.0558 3.27436 101.296 3.2857C101.296 5.58439 101.296 7.88307 101.296 10.2514C91.6023 10.2514 81.9087 10.2514 71.9214 10.2514C71.9214 13.2874 71.9214 16.3234 71.9214 19.4514C80.2239 19.4514 88.5265 19.4514 97.0807 19.4514C97.0807 21.7935 97.0807 24.1355 97.0807 26.5486C88.7781 26.5486 80.4755 26.5486 71.9214 26.5486C71.601 30.8579 71.601 30.8579 73.2314 34.3218C74.2764 35.2634 75.4234 35.6574 76.8224 35.6537C76.9801 35.6549 76.9801 35.6549 77.141 35.656C77.4913 35.6583 77.8416 35.6587 78.1919 35.659C78.4438 35.6603 78.6957 35.6616 78.9476 35.663C79.6301 35.6666 80.3126 35.6686 80.9951 35.6703C81.7088 35.6724 82.4226 35.6759 83.1363 35.6793C84.4873 35.6854 85.8383 35.6902 87.1893 35.6946C88.7276 35.6996 90.2659 35.7061 91.8042 35.7127C94.9681 35.7263 98.132 35.7379 101.296 35.7486C101.296 38.0472 101.296 40.3459 101.296 42.7143C97.8996 42.7262 94.5033 42.7358 91.1071 42.7415C89.5299 42.7442 87.9528 42.7479 86.3757 42.7539C85.0002 42.7592 83.6248 42.7626 82.2493 42.7637C81.5218 42.7644 80.7943 42.766 80.0667 42.7699C79.3803 42.7735 78.6939 42.7745 78.0074 42.7737C77.7571 42.7739 77.5067 42.7749 77.2564 42.7769C75.2188 42.7927 73.2866 42.5747 71.4356 41.6546C71.3323 41.6045 71.2289 41.5544 71.1224 41.5027C70.0946 40.9833 69.2248 40.3191 68.3648 39.56C68.228 39.4431 68.228 39.4431 68.0885 39.3238C66.1762 37.5679 65.0263 34.8771 64.8083 32.3314C64.7881 31.7324 64.7876 31.1336 64.787 30.5343C64.7864 30.3539 64.7858 30.1735 64.7851 29.9931C64.7833 29.5054 64.7825 29.0176 64.7819 28.5298C64.7815 28.224 64.781 27.9181 64.7804 27.6122C64.7786 26.652 64.7773 25.6918 64.7768 24.7316C64.7762 23.6293 64.7739 22.527 64.7701 21.4247C64.7672 20.5688 64.7659 19.7129 64.7657 18.8569C64.7656 18.3476 64.7648 17.8383 64.7625 17.3289C64.7395 12.1132 64.7395 12.1132 65.8621 9.85713C65.9203 9.736 65.9785 9.61486 66.0386 9.49006C67.4258 6.77169 69.8997 4.89392 72.7117 3.81142C74.3522 3.29861 75.9148 3.21212 77.6236 3.22602Z" fill="white"/>
<path id="Vector_4" d="M120.046 3.26244C120.194 3.26158 120.342 3.26072 120.494 3.25983C120.982 3.25724 121.47 3.2557 121.959 3.25439C122.21 3.25359 122.21 3.25359 122.467 3.25277C123.264 3.25031 124.061 3.24839 124.858 3.2473C125.771 3.24602 126.684 3.24257 127.598 3.23724C128.394 3.23276 129.19 3.23124 129.986 3.23071C130.322 3.23007 130.658 3.22856 130.994 3.22611C135.001 3.19865 138.3 3.96919 141.287 6.77062C143.928 9.49552 144.501 12.3809 144.501 16.1657C142.198 16.1657 139.894 16.1657 137.52 16.1657C137.52 14.214 137.52 12.2623 137.52 10.2514C130.13 10.2514 122.741 10.2514 115.127 10.2514C115.127 18.6655 115.127 27.0795 115.127 35.7486C122.517 35.7486 129.906 35.7486 137.52 35.7486C137.52 33.8402 137.52 31.9319 137.52 29.9657C139.824 29.9657 142.128 29.9657 144.501 29.9657C144.501 33.884 143.843 36.6208 141.077 39.4286C140.988 39.5189 140.899 39.6092 140.807 39.7022C138.668 41.7327 135.756 42.7795 132.83 42.7674C132.596 42.7687 132.596 42.7687 132.357 42.7701C131.846 42.7725 131.335 42.772 130.824 42.7713C130.556 42.7716 130.289 42.7722 130.021 42.7728C129.18 42.7746 128.339 42.7744 127.498 42.7729C126.637 42.7714 125.776 42.7732 124.915 42.7768C124.17 42.7797 123.425 42.7805 122.68 42.7798C122.237 42.7793 121.795 42.7799 121.352 42.7819C117.413 42.7977 114.085 41.9756 111.175 39.1657C108.804 36.6875 107.971 33.7189 107.978 30.3524C107.977 30.1745 107.976 29.9966 107.976 29.8187C107.974 29.3407 107.974 28.8628 107.974 28.3848C107.974 27.9832 107.974 27.5815 107.973 27.1799C107.972 26.2308 107.971 25.2816 107.972 24.3325C107.973 23.3595 107.971 22.3865 107.969 21.4135C107.966 20.5727 107.965 19.7318 107.966 18.8909C107.966 18.3911 107.966 17.8914 107.964 17.3916C107.95 13.2577 108.326 9.94762 111.307 6.83428C111.378 6.75346 111.449 6.67265 111.523 6.58939C112.242 5.80234 113.162 5.27073 114.073 4.73142C114.183 4.66602 114.293 4.60063 114.407 4.53325C116.149 3.58631 118.088 3.26745 120.046 3.26244Z" fill="white"/>
</g>
</svg>
