<svg width="44" height="44" viewBox="0 0 44 44" fill="none" xmlns="http://www.w3.org/2000/svg">
<rect x="2" y="2" width="40" height="40" rx="20" fill="#252940"/>
<rect x="1" y="1" width="42" height="42" rx="21" stroke="#252940" stroke-opacity="0.3" stroke-width="2"/>
<path d="M20.05 20.607L12.98 27.677C12.7941 27.8627 12.6465 28.0833 12.5459 28.3261C12.4452 28.5689 12.3934 28.8291 12.3934 29.092C12.3934 29.3548 12.4452 29.615 12.5459 29.8578C12.6465 30.1006 12.7941 30.3212 12.98 30.507C13.3551 30.8819 13.8637 31.0925 14.394 31.0925C14.9243 31.0925 15.433 30.8819 15.808 30.507L22.878 23.435M20.05 20.607C19.206 18.454 19.371 15.629 21.11 13.889C22.849 12.149 26.06 11.768 27.828 12.829L24.788 15.869L24.505 18.98L27.616 18.698L30.656 15.657C31.718 17.425 31.336 20.635 29.596 22.374C27.856 24.114 25.031 24.279 22.878 23.435" stroke="white" stroke-width="1.5" stroke-linecap="round" stroke-linejoin="round"/>
</svg>
