<svg width="32" height="32" viewBox="0 0 32 32" fill="none" xmlns="http://www.w3.org/2000/svg">
<g id="octicon:three-bars-16">
<path id="Vector" d="M2 5.5C2 5.10218 2.15804 4.72064 2.43934 4.43934C2.72064 4.15804 3.10218 4 3.5 4H28.5C28.8978 4 29.2794 4.15804 29.5607 4.43934C29.842 4.72064 30 5.10218 30 5.5C30 5.89782 29.842 6.27936 29.5607 6.56066C29.2794 6.84196 28.8978 7 28.5 7H3.5C3.10218 7 2.72064 6.84196 2.43934 6.56066C2.15804 6.27936 2 5.89782 2 5.5ZM2 15.5C2 15.1022 2.15804 14.7206 2.43934 14.4393C2.72064 14.158 3.10218 14 3.5 14H28.5C28.8978 14 29.2794 14.158 29.5607 14.4393C29.842 14.7206 30 15.1022 30 15.5C30 15.8978 29.842 16.2794 29.5607 16.5607C29.2794 16.842 28.8978 17 28.5 17H3.5C3.10218 17 2.72064 16.842 2.43934 16.5607C2.15804 16.2794 2 15.8978 2 15.5ZM3.5 24H28.5C28.8978 24 29.2794 24.158 29.5607 24.4393C29.842 24.7206 30 25.1022 30 25.5C30 25.8978 29.842 26.2794 29.5607 26.5607C29.2794 26.842 28.8978 27 28.5 27H3.5C3.10218 27 2.72064 26.842 2.43934 26.5607C2.15804 26.2794 2 25.8978 2 25.5C2 25.1022 2.15804 24.7206 2.43934 24.4393C2.72064 24.158 3.10218 24 3.5 24Z" fill="#00C977"/>
</g>
</svg>
