<svg width="24" height="25" viewBox="0 0 24 25" fill="none" xmlns="http://www.w3.org/2000/svg">
<path d="M3.63696 3.93408L12.377 12.5051L3.70196 21.1551C3.56003 20.9702 3.44986 20.7631 3.37596 20.5421C3.33773 20.2919 3.33773 20.0373 3.37596 19.7871V5.06708C3.34996 4.67208 3.44096 4.27708 3.63596 3.93408M16.142 8.76708L13.289 11.5931L4.65296 3.10008C4.93296 3.00308 5.23296 2.97608 5.52596 3.02208C5.98596 3.14808 6.42496 3.34208 6.82796 3.59508L14.644 7.92008C15.152 8.19308 15.647 8.48008 16.142 8.76708ZM13.29 13.4301L16.129 16.2181L14.071 17.3641L7.79196 20.8541C7.27196 21.1411 6.74996 21.4151 6.24196 21.7281C6.02458 21.8634 5.78084 21.9508 5.527 21.9844C5.27316 22.0181 5.01507 21.9971 4.76996 21.9231L13.29 13.4301ZM20.65 12.5051C20.6572 12.8548 20.5689 13.1998 20.3944 13.5029C20.2199 13.806 19.966 14.0557 19.66 14.2251L17.314 15.5271L14.227 12.5051L17.327 9.43108C18.122 9.87408 18.904 10.3171 19.685 10.7341C19.9964 10.9082 20.2523 11.1669 20.4229 11.4803C20.5935 11.7937 20.6728 12.149 20.65 12.5051Z" fill="white"/>
</svg>
