<svg xmlns="http://www.w3.org/2000/svg" width="135" height="40" viewBox="0 0 135 40">
  <rect width="135" height="40" rx="5" fill="#000"/>
  <rect x="0.5" y="0.5" width="134" height="39" rx="4.5" fill="none" stroke="#A6A6A6"/>
  <text x="42" y="12" font-family="'Helvetica Neue', Helvetica, Arial, sans-serif" font-size="7" fill="#fff" letter-spacing="0.2">GET IT ON</text>
  <text x="42" y="26" font-family="'Helvetica Neue', Helvetica, Arial, sans-serif" font-size="14" font-weight="bold" fill="#fff">Google Play</text>
  <!-- Play triangle -->
  <g transform="translate(8, 8)">
    <path d="M1.22 0.27L12.45 11.5 1.22 22.73C0.88 22.39 0.67 21.91 0.67 21.33V1.67C0.67 1.09 0.88 0.61 1.22 0.27Z" fill="url(#a)"/>
    <path d="M16.67 11.5L12.45 15.72 3.11 6.37 12.45 7.28Z" fill="url(#b)"/>
    <path d="M12.45 15.72L16.67 11.5 19.78 13.17C20.73 13.69 20.73 14.64 19.78 15.17L12.45 15.72Z" fill="url(#c)"/>
    <path d="M12.45 7.28L3.11 6.37 12.45 15.72Z" fill="url(#d)"/>
    <defs>
      <linearGradient id="a" x1="6.18" y1="0.27" x2="6.18" y2="22.73" gradientUnits="userSpaceOnUse">
        <stop stop-color="#00A0FF"/>
        <stop offset="1" stop-color="#00A0FF" stop-opacity="0"/>
      </linearGradient>
      <linearGradient id="b" x1="20.39" y1="11.5" x2="0.67" y2="11.5" gradientUnits="userSpaceOnUse">
        <stop stop-color="#FFD800"/>
        <stop offset="1" stop-color="#FF3A44"/>
      </linearGradient>
      <linearGradient id="c" x1="21.56" y1="8.06" x2="8.87" y2="20.74" gradientUnits="userSpaceOnUse">
        <stop stop-color="#FF3A44"/>
        <stop offset="1" stop-color="#C31162"/>
      </linearGradient>
      <linearGradient id="d" x1="0.67" y1="14.08" x2="16.45" y2="-1.7" gradientUnits="userSpaceOnUse">
        <stop stop-color="#32A071"/>
        <stop offset="1" stop-color="#2DA771"/>
      </linearGradient>
    </defs>
  </g>
</svg>
