<svg width="44" height="44" viewBox="0 0 44 44" fill="none" xmlns="http://www.w3.org/2000/svg">
<rect x="2" y="2" width="40" height="40" rx="20" fill="#00C977"/>
<rect x="1" y="1" width="42" height="42" rx="21" stroke="#00C977" stroke-opacity="0.3" stroke-width="2"/>
<path d="M22.2526 22.7023L22 22.5543L21.7474 22.7023L19.8474 23.8148L19.8473 23.8147L19.8455 23.8158L20.3365 21.7498L20.4078 21.4496L20.1715 21.2513L18.5111 19.8576L20.7129 19.6901L21.0116 19.6673L21.1325 19.3933L22 17.427L22.8675 19.3933L22.9884 19.6673L23.2871 19.6901L25.4889 19.8576L23.8285 21.2513L23.5922 21.4496L23.6635 21.7498L24.1545 23.8159L24.1526 23.8148L22.2526 22.7023ZM16 27.9788H15.7977L15.6523 28.1194L13.3523 30.3445C13.2504 30.4431 13.1656 30.4809 13.0975 30.4938C13.0292 30.5068 12.9356 30.5026 12.8031 30.4478C12.6701 30.3928 12.6034 30.3306 12.567 30.2767C12.531 30.2233 12.4998 30.1411 12.5 30.0032V30.0025V14.9348C12.5 14.542 12.6382 14.2154 12.9353 13.9285C13.2334 13.6407 13.5793 13.5006 14.0003 13.5H30C30.4215 13.5 30.7675 13.64 31.0653 13.9282C31.3627 14.2159 31.5005 14.5424 31.5 14.9342V14.9348V26.5439C31.5 26.937 31.3618 27.2642 31.065 27.5518C30.7682 27.8395 30.4227 27.9793 30.0006 27.9788H30H16ZM30 27.0439H30.5V26.5439V14.9348V14.4348H30H14H13.5V14.9348V27.6323V28.7939L14.3437 27.9954L15.3491 27.0439H30Z" fill="white" stroke="white"/>
</svg>
